<mxfile host="Electron" modified="2024-03-14T11:51:33.512Z" agent="Mozilla/5.0 (Macintosh; Intel Mac OS X 10_15_7) AppleWebKit/537.36 (KHTML, like Gecko) draw.io/24.0.4 Chrome/120.0.6099.109 Electron/28.1.0 Safari/537.36" etag="SFCGo7x2g5unzUKZpz3y" version="24.0.4" type="device">
  <diagram name="Page-1" id="ZRe_wIOORr0k_d4isBBX">
    <mxGraphModel dx="2584" dy="2099" grid="1" gridSize="10" guides="1" tooltips="1" connect="1" arrows="1" fold="1" page="1" pageScale="1" pageWidth="1169" pageHeight="827" math="0" shadow="0">
      <root>
        <mxCell id="0" />
        <mxCell id="1" parent="0" />
        <mxCell id="NV7x72Zd9u3rbeVEopfi-3" value="" style="rounded=1;whiteSpace=wrap;html=1;fillColor=none;strokeWidth=3;arcSize=12;labelPosition=center;verticalLabelPosition=middle;align=center;verticalAlign=middle;spacingTop=0;strokeColor=#bc1a1a;" parent="1" vertex="1">
          <mxGeometry x="-1117" y="-800" width="240" height="450" as="geometry" />
        </mxCell>
        <mxCell id="4NoEkOULwa_hqzR1PTxX-2" value="" style="rounded=1;whiteSpace=wrap;html=1;fillColor=none;strokeWidth=3;arcSize=12;align=left;flipV=1;" parent="1" vertex="1">
          <mxGeometry x="-1092" y="-601.16" width="190" height="104" as="geometry" />
        </mxCell>
        <mxCell id="4NoEkOULwa_hqzR1PTxX-54" value="&lt;span style=&quot;color: rgba(0, 0, 0, 0); font-family: monospace; font-size: 0px; text-align: start; text-wrap: nowrap;&quot;&gt;%3CmxGraphModel%3E%3Croot%3E%3CmxCell%20id%3D%220%22%2F%3E%3CmxCell%20id%3D%221%22%20parent%3D%220%22%2F%3E%3CmxCell%20id%3D%222%22%20value%3D%22%26lt%3Bi%26gt%3B%26lt%3Bb%26gt%3B%26lt%3Bfont%20style%3D%26quot%3Bfont-size%3A%2019px%3B%26quot%3B%26gt%3BVerifiable%20Credential%201%26lt%3B%2Ffont%26gt%3B%26lt%3B%2Fb%26gt%3B%26lt%3B%2Fi%26gt%3B%22%20style%3D%22text%3Bhtml%3D1%3Balign%3Dcenter%3BverticalAlign%3Dmiddle%3BwhiteSpace%3Dwrap%3Brounded%3D0%3BfontSize%3D16%3B%22%20vertex%3D%221%22%20parent%3D%221%22%3E%3CmxGeometry%20x%3D%22-1107%22%20y%3D%22-788%22%20width%3D%22220%22%20height%3D%2231.94%22%20as%3D%22geometry%22%2F%3E%3C%2FmxCell%3E%3C%2Froot%3E%3C%2FmxGraphModel%3E&lt;/span&gt;" style="rounded=1;whiteSpace=wrap;html=1;fillColor=none;strokeWidth=3;arcSize=12;labelPosition=center;verticalLabelPosition=middle;align=center;verticalAlign=middle;spacingTop=0;strokeColor=#253db6;" parent="1" vertex="1">
          <mxGeometry x="-550" y="-805" width="320" height="930" as="geometry" />
        </mxCell>
        <mxCell id="4NoEkOULwa_hqzR1PTxX-61" value="" style="endArrow=none;html=1;rounded=0;fontSize=12;startSize=8;endSize=8;curved=1;exitX=1;exitY=0.25;exitDx=0;exitDy=0;entryX=-0.002;entryY=0.073;entryDx=0;entryDy=0;entryPerimeter=0;" parent="1" source="NV7x72Zd9u3rbeVEopfi-3" target="4NoEkOULwa_hqzR1PTxX-28" edge="1">
          <mxGeometry width="50" height="50" relative="1" as="geometry">
            <mxPoint x="-770" y="-710" as="sourcePoint" />
            <mxPoint x="-630" y="-560" as="targetPoint" />
          </mxGeometry>
        </mxCell>
        <mxCell id="4NoEkOULwa_hqzR1PTxX-62" value="" style="endArrow=none;html=1;rounded=0;fontSize=12;startSize=8;endSize=8;curved=1;exitX=1.002;exitY=0.922;exitDx=0;exitDy=0;entryX=-0.006;entryY=0.92;entryDx=0;entryDy=0;entryPerimeter=0;exitPerimeter=0;" parent="1" source="NV7x72Zd9u3rbeVEopfi-3" target="4NoEkOULwa_hqzR1PTxX-28" edge="1">
          <mxGeometry width="50" height="50" relative="1" as="geometry">
            <mxPoint x="-867" y="-410" as="sourcePoint" />
            <mxPoint x="-488" y="-340" as="targetPoint" />
          </mxGeometry>
        </mxCell>
        <mxCell id="4NoEkOULwa_hqzR1PTxX-63" value="" style="endArrow=none;html=1;rounded=0;fontSize=12;startSize=8;endSize=8;curved=1;exitX=1.002;exitY=0.898;exitDx=0;exitDy=0;exitPerimeter=0;" parent="1" source="4NoEkOULwa_hqzR1PTxX-10" edge="1">
          <mxGeometry width="50" height="50" relative="1" as="geometry">
            <mxPoint x="-867" y="-375" as="sourcePoint" />
            <mxPoint x="-510" y="-20" as="targetPoint" />
          </mxGeometry>
        </mxCell>
        <mxCell id="4NoEkOULwa_hqzR1PTxX-64" value="" style="endArrow=none;html=1;rounded=0;fontSize=12;startSize=8;endSize=8;curved=1;exitX=1.006;exitY=0.056;exitDx=0;exitDy=0;entryX=-0.002;entryY=0.07;entryDx=0;entryDy=0;entryPerimeter=0;exitPerimeter=0;" parent="1" source="4NoEkOULwa_hqzR1PTxX-10" target="4NoEkOULwa_hqzR1PTxX-43" edge="1">
          <mxGeometry width="50" height="50" relative="1" as="geometry">
            <mxPoint x="-857" y="-365" as="sourcePoint" />
            <mxPoint x="-491" y="-324" as="targetPoint" />
          </mxGeometry>
        </mxCell>
        <mxCell id="4NoEkOULwa_hqzR1PTxX-66" value="" style="endArrow=none;dashed=1;html=1;rounded=0;fontSize=12;startSize=8;endSize=8;curved=1;entryX=0;entryY=0.75;entryDx=0;entryDy=0;" parent="1" target="4NoEkOULwa_hqzR1PTxX-31" edge="1">
          <mxGeometry width="50" height="50" relative="1" as="geometry">
            <mxPoint x="-990" y="-530" as="sourcePoint" />
            <mxPoint x="-610" y="-350" as="targetPoint" />
          </mxGeometry>
        </mxCell>
        <mxCell id="4NoEkOULwa_hqzR1PTxX-67" value="" style="endArrow=none;dashed=1;html=1;rounded=0;fontSize=12;startSize=8;endSize=8;curved=1;" parent="1" edge="1">
          <mxGeometry width="50" height="50" relative="1" as="geometry">
            <mxPoint x="-950" y="-54" as="sourcePoint" />
            <mxPoint x="-485" y="-87.69589285714278" as="targetPoint" />
          </mxGeometry>
        </mxCell>
        <mxCell id="I-3xDNqU13IutiKupr62-10" style="edgeStyle=none;curved=1;rounded=0;orthogonalLoop=1;jettySize=auto;html=1;exitX=0;exitY=0.5;exitDx=0;exitDy=0;fontSize=12;startSize=8;endSize=8;" parent="1" edge="1">
          <mxGeometry relative="1" as="geometry">
            <mxPoint x="-1060" y="-599" as="sourcePoint" />
            <mxPoint x="-1060" y="-599" as="targetPoint" />
          </mxGeometry>
        </mxCell>
        <mxCell id="4NoEkOULwa_hqzR1PTxX-6" value="&lt;i&gt;&lt;b&gt;&lt;font style=&quot;font-size: 19px;&quot;&gt;Verifiable Credential 1&lt;/font&gt;&lt;/b&gt;&lt;/i&gt;" style="text;html=1;align=center;verticalAlign=middle;whiteSpace=wrap;rounded=0;fontSize=16;" parent="1" vertex="1">
          <mxGeometry x="-1107" y="-788" width="220" height="31.94" as="geometry" />
        </mxCell>
        <mxCell id="4NoEkOULwa_hqzR1PTxX-9" style="edgeStyle=none;curved=1;rounded=0;orthogonalLoop=1;jettySize=auto;html=1;exitX=0;exitY=0.5;exitDx=0;exitDy=0;fontSize=12;startSize=8;endSize=8;" parent="1" edge="1">
          <mxGeometry relative="1" as="geometry">
            <mxPoint x="-1057" y="-119" as="sourcePoint" />
            <mxPoint x="-1057" y="-119" as="targetPoint" />
          </mxGeometry>
        </mxCell>
        <mxCell id="4NoEkOULwa_hqzR1PTxX-10" value="" style="rounded=1;whiteSpace=wrap;html=1;fillColor=none;strokeWidth=3;arcSize=12;labelPosition=center;verticalLabelPosition=middle;align=center;verticalAlign=middle;spacingTop=0;strokeColor=#bc1a1a;" parent="1" vertex="1">
          <mxGeometry x="-1117" y="-320" width="240" height="450" as="geometry" />
        </mxCell>
        <mxCell id="4NoEkOULwa_hqzR1PTxX-15" value="&lt;i&gt;&lt;b&gt;&lt;font style=&quot;font-size: 19px;&quot;&gt;Verifiable Credential 2&lt;/font&gt;&lt;/b&gt;&lt;/i&gt;" style="text;html=1;align=center;verticalAlign=middle;whiteSpace=wrap;rounded=0;fontSize=16;" parent="1" vertex="1">
          <mxGeometry x="-1107" y="-310" width="220" height="31.94" as="geometry" />
        </mxCell>
        <mxCell id="4NoEkOULwa_hqzR1PTxX-51" value="&lt;span style=&quot;color: rgba(0, 0, 0, 0); font-family: monospace; font-size: 0px; text-align: start; text-wrap: nowrap;&quot;&gt;%3CmxGraphModel%3E%3Croot%3E%3CmxCell%20id%3D%220%22%2F%3E%3CmxCell%20id%3D%221%22%20parent%3D%220%22%2F%3E%3CmxCell%20id%3D%222%22%20value%3D%22%26lt%3Bi%26gt%3B%26lt%3Bb%26gt%3B%26lt%3Bfont%20style%3D%26quot%3Bfont-size%3A%2019px%3B%26quot%3B%26gt%3BVerifiable%20Credential%201%26lt%3B%2Ffont%26gt%3B%26lt%3B%2Fb%26gt%3B%26lt%3B%2Fi%26gt%3B%22%20style%3D%22text%3Bhtml%3D1%3Balign%3Dcenter%3BverticalAlign%3Dmiddle%3BwhiteSpace%3Dwrap%3Brounded%3D0%3BfontSize%3D16%3B%22%20vertex%3D%221%22%20parent%3D%221%22%3E%3CmxGeometry%20x%3D%22-1107%22%20y%3D%22-788%22%20width%3D%22220%22%20height%3D%2231.94%22%20as%3D%22geometry%22%2F%3E%3C%2FmxCell%3E%3C%2Froot%3E%3C%2FmxGraphModel%3E&lt;/span&gt;" style="rounded=1;whiteSpace=wrap;html=1;fillColor=none;strokeWidth=3;arcSize=12;labelPosition=center;verticalLabelPosition=middle;align=center;verticalAlign=middle;spacingTop=0;strokeColor=#166a1f;" parent="1" vertex="1">
          <mxGeometry x="-530" y="-660" width="280" height="690" as="geometry" />
        </mxCell>
        <mxCell id="4NoEkOULwa_hqzR1PTxX-52" value="&lt;i&gt;&lt;b&gt;&lt;font style=&quot;font-size: 19px;&quot;&gt;Verifiable Credential&lt;/font&gt;&lt;/b&gt;&lt;/i&gt;" style="text;html=1;align=center;verticalAlign=middle;whiteSpace=wrap;rounded=0;fontSize=16;" parent="1" vertex="1">
          <mxGeometry x="-500" y="-650" width="220" height="31.94" as="geometry" />
        </mxCell>
        <mxCell id="4NoEkOULwa_hqzR1PTxX-55" value="" style="rounded=1;whiteSpace=wrap;html=1;fillColor=none;strokeWidth=3;arcSize=12;align=left;flipV=1;strokeColor=#166a1f;" parent="1" vertex="1">
          <mxGeometry x="-530" y="-760" width="280" height="88" as="geometry" />
        </mxCell>
        <mxCell id="4NoEkOULwa_hqzR1PTxX-56" value="" style="rounded=1;whiteSpace=wrap;html=1;fillColor=none;strokeWidth=3;arcSize=12;align=left;flipV=1;strokeColor=#166a1f;" parent="1" vertex="1">
          <mxGeometry x="-530" y="50" width="280" height="50" as="geometry" />
        </mxCell>
        <mxCell id="4NoEkOULwa_hqzR1PTxX-57" style="edgeStyle=none;curved=1;rounded=0;orthogonalLoop=1;jettySize=auto;html=1;exitX=0.5;exitY=1;exitDx=0;exitDy=0;fontSize=12;startSize=8;endSize=8;" parent="1" source="4NoEkOULwa_hqzR1PTxX-54" target="4NoEkOULwa_hqzR1PTxX-54" edge="1">
          <mxGeometry relative="1" as="geometry" />
        </mxCell>
        <mxCell id="4NoEkOULwa_hqzR1PTxX-58" value="&lt;i&gt;&lt;b&gt;&lt;font style=&quot;font-size: 19px;&quot;&gt;Presentation&lt;/font&gt;&lt;/b&gt;&lt;/i&gt;" style="text;html=1;align=center;verticalAlign=middle;whiteSpace=wrap;rounded=0;fontSize=16;" parent="1" vertex="1">
          <mxGeometry x="-500" y="-791.94" width="220" height="31.94" as="geometry" />
        </mxCell>
        <mxCell id="4NoEkOULwa_hqzR1PTxX-48" value="" style="group;strokeColor=none;container=0;" parent="1" vertex="1" connectable="0">
          <mxGeometry x="-510" y="-290" width="240" height="300" as="geometry" />
        </mxCell>
        <mxCell id="4NoEkOULwa_hqzR1PTxX-49" value="" style="group;strokeColor=none;container=0;" parent="1" vertex="1" connectable="0">
          <mxGeometry x="-510" y="-610" width="240" height="300" as="geometry" />
        </mxCell>
        <mxCell id="4NoEkOULwa_hqzR1PTxX-27" style="edgeStyle=none;curved=1;rounded=0;orthogonalLoop=1;jettySize=auto;html=1;exitX=0;exitY=0.5;exitDx=0;exitDy=0;fontSize=12;startSize=8;endSize=8;" parent="1" edge="1">
          <mxGeometry relative="1" as="geometry">
            <mxPoint x="-450" y="-439" as="sourcePoint" />
            <mxPoint x="-450" y="-439" as="targetPoint" />
          </mxGeometry>
        </mxCell>
        <mxCell id="4NoEkOULwa_hqzR1PTxX-28" value="" style="rounded=1;whiteSpace=wrap;html=1;fillColor=none;strokeWidth=3;arcSize=12;labelPosition=center;verticalLabelPosition=middle;align=center;verticalAlign=middle;spacingTop=0;strokeColor=#bc1a1a;" parent="1" vertex="1">
          <mxGeometry x="-510" y="-610" width="240" height="300" as="geometry" />
        </mxCell>
        <mxCell id="4NoEkOULwa_hqzR1PTxX-33" value="&lt;i&gt;&lt;b&gt;&lt;font style=&quot;font-size: 19px;&quot;&gt;Derived Credential 1&lt;/font&gt;&lt;/b&gt;&lt;/i&gt;" style="text;html=1;align=center;verticalAlign=middle;whiteSpace=wrap;rounded=0;fontSize=16;" parent="1" vertex="1">
          <mxGeometry x="-500" y="-600" width="220" height="31.94" as="geometry" />
        </mxCell>
        <mxCell id="4NoEkOULwa_hqzR1PTxX-30" value="" style="rounded=1;whiteSpace=wrap;html=1;fillColor=none;strokeWidth=3;arcSize=12;align=left;flipV=1;" parent="1" vertex="1">
          <mxGeometry x="-485" y="-560" width="190" height="105.84" as="geometry" />
        </mxCell>
        <mxCell id="4NoEkOULwa_hqzR1PTxX-31" value="&lt;font style=&quot;font-size: 14px;&quot;&gt;&amp;nbsp;&amp;nbsp;&lt;/font&gt;" style="rounded=1;whiteSpace=wrap;html=1;fillColor=none;strokeWidth=3;arcSize=12;align=left;flipV=1;" parent="1" vertex="1">
          <mxGeometry x="-485" y="-441.15999999999997" width="190" height="41.16" as="geometry" />
        </mxCell>
        <mxCell id="4NoEkOULwa_hqzR1PTxX-32" value="&lt;font style=&quot;font-size: 14px;&quot;&gt;&amp;nbsp;&amp;nbsp;&lt;/font&gt;" style="rounded=1;whiteSpace=wrap;html=1;fillColor=none;strokeWidth=3;arcSize=12;align=left;flipV=1;" parent="1" vertex="1">
          <mxGeometry x="-485" y="-380" width="190" height="50" as="geometry" />
        </mxCell>
        <mxCell id="4NoEkOULwa_hqzR1PTxX-42" style="edgeStyle=none;curved=1;rounded=0;orthogonalLoop=1;jettySize=auto;html=1;exitX=0;exitY=0.5;exitDx=0;exitDy=0;fontSize=12;startSize=8;endSize=8;" parent="1" edge="1">
          <mxGeometry relative="1" as="geometry">
            <mxPoint x="-450" y="-119" as="sourcePoint" />
            <mxPoint x="-450" y="-119" as="targetPoint" />
          </mxGeometry>
        </mxCell>
        <mxCell id="4NoEkOULwa_hqzR1PTxX-43" value="" style="rounded=1;whiteSpace=wrap;html=1;fillColor=none;strokeWidth=3;arcSize=12;labelPosition=center;verticalLabelPosition=middle;align=center;verticalAlign=middle;spacingTop=0;strokeColor=#bc1a1a;" parent="1" vertex="1">
          <mxGeometry x="-510" y="-290" width="240" height="300" as="geometry" />
        </mxCell>
        <mxCell id="4NoEkOULwa_hqzR1PTxX-44" value="&lt;i&gt;&lt;b&gt;&lt;font style=&quot;font-size: 19px;&quot;&gt;Derived Credential 2&lt;/font&gt;&lt;/b&gt;&lt;/i&gt;" style="text;html=1;align=center;verticalAlign=middle;whiteSpace=wrap;rounded=0;fontSize=16;" parent="1" vertex="1">
          <mxGeometry x="-500" y="-280" width="220" height="31.94" as="geometry" />
        </mxCell>
        <mxCell id="4NoEkOULwa_hqzR1PTxX-45" value="" style="rounded=1;whiteSpace=wrap;html=1;fillColor=none;strokeWidth=3;arcSize=12;align=left;flipV=1;" parent="1" vertex="1">
          <mxGeometry x="-485" y="-240" width="190" height="105.84" as="geometry" />
        </mxCell>
        <mxCell id="4NoEkOULwa_hqzR1PTxX-46" value="" style="rounded=1;whiteSpace=wrap;html=1;fillColor=none;strokeWidth=3;arcSize=12;align=left;flipV=1;" parent="1" vertex="1">
          <mxGeometry x="-485" y="-121.15999999999997" width="190" height="41.16" as="geometry" />
        </mxCell>
        <mxCell id="4NoEkOULwa_hqzR1PTxX-47" value="&lt;font style=&quot;font-size: 14px;&quot;&gt;&amp;nbsp;&amp;nbsp;&lt;/font&gt;" style="rounded=1;whiteSpace=wrap;html=1;fillColor=none;strokeWidth=3;arcSize=12;align=left;flipV=1;" parent="1" vertex="1">
          <mxGeometry x="-485" y="-60" width="190" height="50" as="geometry" />
        </mxCell>
        <mxCell id="4NoEkOULwa_hqzR1PTxX-1" value="" style="rounded=1;whiteSpace=wrap;html=1;fillColor=none;strokeWidth=3;arcSize=12;align=left;flipV=1;" parent="1" vertex="1">
          <mxGeometry x="-1092" y="-754.16" width="190" height="140" as="geometry" />
        </mxCell>
        <mxCell id="4NoEkOULwa_hqzR1PTxX-3" value="" style="rounded=1;whiteSpace=wrap;html=1;fillColor=none;strokeWidth=3;arcSize=12;align=left;flipV=1;" parent="1" vertex="1">
          <mxGeometry x="-1092" y="-483.15999999999997" width="190" height="107.03" as="geometry" />
        </mxCell>
        <mxCell id="4NoEkOULwa_hqzR1PTxX-12" value="" style="rounded=1;whiteSpace=wrap;html=1;fillColor=none;strokeWidth=3;arcSize=12;align=left;flipV=1;" parent="1" vertex="1">
          <mxGeometry x="-1092" y="-274.15999999999997" width="190" height="140" as="geometry" />
        </mxCell>
        <mxCell id="4NoEkOULwa_hqzR1PTxX-13" value="&lt;font style=&quot;font-size: 14px;&quot;&gt;&amp;nbsp;&lt;/font&gt;" style="rounded=1;whiteSpace=wrap;html=1;fillColor=none;strokeWidth=3;arcSize=12;align=left;flipV=1;" parent="1" vertex="1">
          <mxGeometry x="-1092" y="-121.15999999999997" width="190" height="104" as="geometry" />
        </mxCell>
        <mxCell id="4NoEkOULwa_hqzR1PTxX-14" value="" style="rounded=1;whiteSpace=wrap;html=1;fillColor=none;strokeWidth=3;arcSize=12;align=left;flipV=1;" parent="1" vertex="1">
          <mxGeometry x="-1092" y="-3.159999999999968" width="190" height="107.03" as="geometry" />
        </mxCell>
        <mxCell id="ogGgAtrba4owZQfqpPe0-1" value="&lt;font style=&quot;font-size: 14px;&quot;&gt;Context&lt;/font&gt;&lt;div style=&quot;font-size: 14px;&quot;&gt;&lt;font style=&quot;font-size: 14px;&quot;&gt;Type&lt;/font&gt;&lt;/div&gt;&lt;div style=&quot;font-size: 14px;&quot;&gt;&lt;font style=&quot;font-size: 14px;&quot;&gt;ID&lt;/font&gt;&lt;/div&gt;&lt;div style=&quot;font-size: 14px;&quot;&gt;&lt;font style=&quot;font-size: 14px;&quot;&gt;…&lt;/font&gt;&lt;/div&gt;" style="text;html=1;align=left;verticalAlign=middle;whiteSpace=wrap;rounded=0;fontSize=16;" vertex="1" parent="1">
          <mxGeometry x="-520" y="-754.16" width="100" height="72" as="geometry" />
        </mxCell>
        <mxCell id="ogGgAtrba4owZQfqpPe0-5" value="" style="group" vertex="1" connectable="0" parent="1">
          <mxGeometry x="-1080.5" y="-597.16" width="159" height="93" as="geometry" />
        </mxCell>
        <mxCell id="ogGgAtrba4owZQfqpPe0-6" value="" style="group" vertex="1" connectable="0" parent="ogGgAtrba4owZQfqpPe0-5">
          <mxGeometry width="159" height="93" as="geometry" />
        </mxCell>
        <mxCell id="ogGgAtrba4owZQfqpPe0-2" value="&lt;div style=&quot;font-size: 14px;&quot;&gt;&lt;font style=&quot;font-size: 14px;&quot;&gt;Credential Subject:&lt;/font&gt;&lt;/div&gt;&lt;div style=&quot;font-size: 14px;&quot;&gt;&lt;br&gt;&lt;/div&gt;" style="text;html=1;align=left;verticalAlign=middle;whiteSpace=wrap;rounded=0;fontSize=16;" vertex="1" parent="ogGgAtrba4owZQfqpPe0-6">
          <mxGeometry width="140" height="50" as="geometry" />
        </mxCell>
        <mxCell id="ogGgAtrba4owZQfqpPe0-3" value="&lt;div style=&quot;font-size: 14px;&quot;&gt;&lt;span style=&quot;background-color: initial;&quot;&gt;Given Name&lt;/span&gt;&lt;br&gt;&lt;/div&gt;&lt;div style=&quot;font-size: 14px;&quot;&gt;Family Name&lt;/div&gt;&lt;div style=&quot;font-size: 14px;&quot;&gt;Birth Date&lt;/div&gt;&lt;div style=&quot;font-size: 14px;&quot;&gt;…&lt;/div&gt;" style="text;html=1;align=left;verticalAlign=middle;whiteSpace=wrap;rounded=0;fontSize=16;" vertex="1" parent="ogGgAtrba4owZQfqpPe0-6">
          <mxGeometry x="19" y="23" width="140" height="70" as="geometry" />
        </mxCell>
        <mxCell id="ogGgAtrba4owZQfqpPe0-12" value="" style="group" vertex="1" connectable="0" parent="1">
          <mxGeometry x="-1080.5" y="-476.14" width="159" height="93" as="geometry" />
        </mxCell>
        <mxCell id="ogGgAtrba4owZQfqpPe0-13" value="" style="group" vertex="1" connectable="0" parent="ogGgAtrba4owZQfqpPe0-12">
          <mxGeometry width="159" height="93" as="geometry" />
        </mxCell>
        <mxCell id="ogGgAtrba4owZQfqpPe0-14" value="&lt;div style=&quot;font-size: 14px;&quot;&gt;&lt;font style=&quot;font-size: 14px;&quot;&gt;Proof:&lt;/font&gt;&lt;/div&gt;&lt;div style=&quot;font-size: 14px;&quot;&gt;&lt;br&gt;&lt;/div&gt;" style="text;html=1;align=left;verticalAlign=middle;whiteSpace=wrap;rounded=0;fontSize=16;" vertex="1" parent="ogGgAtrba4owZQfqpPe0-13">
          <mxGeometry width="140" height="50" as="geometry" />
        </mxCell>
        <mxCell id="ogGgAtrba4owZQfqpPe0-15" value="&lt;div style=&quot;font-size: 14px;&quot;&gt;&lt;span style=&quot;background-color: initial;&quot;&gt;Signature&lt;/span&gt;&lt;/div&gt;&lt;div style=&quot;font-size: 14px;&quot;&gt;&lt;span style=&quot;background-color: initial;&quot;&gt;Proof of Correctness&lt;/span&gt;&lt;/div&gt;&lt;div style=&quot;font-size: 14px;&quot;&gt;&lt;span style=&quot;background-color: initial;&quot;&gt;Attributes&lt;/span&gt;&lt;/div&gt;&lt;div style=&quot;font-size: 14px;&quot;&gt;…&lt;/div&gt;" style="text;html=1;align=left;verticalAlign=middle;whiteSpace=wrap;rounded=0;fontSize=16;" vertex="1" parent="ogGgAtrba4owZQfqpPe0-13">
          <mxGeometry x="19" y="23" width="140" height="70" as="geometry" />
        </mxCell>
        <mxCell id="ogGgAtrba4owZQfqpPe0-16" value="&lt;font style=&quot;font-size: 14px;&quot;&gt;Context&lt;/font&gt;&lt;div style=&quot;font-size: 14px;&quot;&gt;&lt;font style=&quot;font-size: 14px;&quot;&gt;Type&lt;/font&gt;&lt;/div&gt;&lt;div style=&quot;font-size: 14px;&quot;&gt;&lt;font style=&quot;font-size: 14px;&quot;&gt;ID&lt;/font&gt;&lt;/div&gt;&lt;div style=&quot;font-size: 14px;&quot;&gt;&lt;font style=&quot;font-size: 14px;&quot;&gt;Issuer&lt;/font&gt;&lt;/div&gt;&lt;div style=&quot;font-size: 14px;&quot;&gt;&lt;font style=&quot;font-size: 14px;&quot;&gt;Issue Date&lt;/font&gt;&lt;/div&gt;&lt;div style=&quot;font-size: 14px;&quot;&gt;&lt;font style=&quot;font-size: 14px;&quot;&gt;Expiration Date&lt;/font&gt;&lt;/div&gt;&lt;div style=&quot;font-size: 14px;&quot;&gt;&lt;font style=&quot;font-size: 14px;&quot;&gt;…&lt;/font&gt;&lt;/div&gt;" style="text;html=1;align=left;verticalAlign=middle;whiteSpace=wrap;rounded=0;fontSize=16;" vertex="1" parent="1">
          <mxGeometry x="-1080.5" y="-745.06" width="100" height="122" as="geometry" />
        </mxCell>
        <mxCell id="ogGgAtrba4owZQfqpPe0-17" value="&lt;font style=&quot;font-size: 14px;&quot;&gt;Context&lt;/font&gt;&lt;div style=&quot;font-size: 14px;&quot;&gt;&lt;font style=&quot;font-size: 14px;&quot;&gt;Type&lt;/font&gt;&lt;/div&gt;&lt;div style=&quot;font-size: 14px;&quot;&gt;&lt;font style=&quot;font-size: 14px;&quot;&gt;ID&lt;/font&gt;&lt;/div&gt;&lt;div style=&quot;font-size: 14px;&quot;&gt;&lt;font style=&quot;font-size: 14px;&quot;&gt;Issuer&lt;/font&gt;&lt;/div&gt;&lt;div style=&quot;font-size: 14px;&quot;&gt;&lt;font style=&quot;font-size: 14px;&quot;&gt;Issue Date&lt;/font&gt;&lt;/div&gt;&lt;div style=&quot;font-size: 14px;&quot;&gt;&lt;font style=&quot;font-size: 14px;&quot;&gt;Expiration Date&lt;/font&gt;&lt;/div&gt;&lt;div style=&quot;font-size: 14px;&quot;&gt;&lt;font style=&quot;font-size: 14px;&quot;&gt;…&lt;/font&gt;&lt;/div&gt;" style="text;html=1;align=left;verticalAlign=middle;whiteSpace=wrap;rounded=0;fontSize=16;" vertex="1" parent="1">
          <mxGeometry x="-1080.5" y="-266.15999999999997" width="100" height="122" as="geometry" />
        </mxCell>
        <mxCell id="ogGgAtrba4owZQfqpPe0-18" value="" style="group" vertex="1" connectable="0" parent="1">
          <mxGeometry x="-1080.5" y="4" width="159" height="93" as="geometry" />
        </mxCell>
        <mxCell id="ogGgAtrba4owZQfqpPe0-19" value="" style="group" vertex="1" connectable="0" parent="ogGgAtrba4owZQfqpPe0-18">
          <mxGeometry width="159" height="93" as="geometry" />
        </mxCell>
        <mxCell id="ogGgAtrba4owZQfqpPe0-20" value="&lt;div style=&quot;font-size: 14px;&quot;&gt;&lt;font style=&quot;font-size: 14px;&quot;&gt;Proof:&lt;/font&gt;&lt;/div&gt;&lt;div style=&quot;font-size: 14px;&quot;&gt;&lt;br&gt;&lt;/div&gt;" style="text;html=1;align=left;verticalAlign=middle;whiteSpace=wrap;rounded=0;fontSize=16;" vertex="1" parent="ogGgAtrba4owZQfqpPe0-19">
          <mxGeometry width="140" height="50" as="geometry" />
        </mxCell>
        <mxCell id="ogGgAtrba4owZQfqpPe0-21" value="&lt;div style=&quot;font-size: 14px;&quot;&gt;&lt;span style=&quot;background-color: initial;&quot;&gt;Signature&lt;/span&gt;&lt;/div&gt;&lt;div style=&quot;font-size: 14px;&quot;&gt;&lt;span style=&quot;background-color: initial;&quot;&gt;Proof of Correctness&lt;/span&gt;&lt;/div&gt;&lt;div style=&quot;font-size: 14px;&quot;&gt;&lt;span style=&quot;background-color: initial;&quot;&gt;Attributes&lt;/span&gt;&lt;/div&gt;&lt;div style=&quot;font-size: 14px;&quot;&gt;…&lt;/div&gt;" style="text;html=1;align=left;verticalAlign=middle;whiteSpace=wrap;rounded=0;fontSize=16;" vertex="1" parent="ogGgAtrba4owZQfqpPe0-19">
          <mxGeometry x="19" y="23" width="140" height="70" as="geometry" />
        </mxCell>
        <mxCell id="ogGgAtrba4owZQfqpPe0-26" value="" style="group" vertex="1" connectable="0" parent="1">
          <mxGeometry x="-1080.5" y="-129.16000000000003" width="159" height="101" as="geometry" />
        </mxCell>
        <mxCell id="ogGgAtrba4owZQfqpPe0-24" value="&lt;div style=&quot;font-size: 14px;&quot;&gt;Credential Subject:&lt;/div&gt;" style="text;html=1;align=left;verticalAlign=middle;whiteSpace=wrap;rounded=0;fontSize=16;" vertex="1" parent="ogGgAtrba4owZQfqpPe0-26">
          <mxGeometry width="140" height="50" as="geometry" />
        </mxCell>
        <mxCell id="ogGgAtrba4owZQfqpPe0-25" value="&lt;div style=&quot;font-size: 14px;&quot;&gt;University&lt;/div&gt;&lt;div style=&quot;font-size: 14px;&quot;&gt;Department&lt;/div&gt;&lt;div style=&quot;font-size: 14px;&quot;&gt;Degree Awarded&lt;/div&gt;&lt;div style=&quot;font-size: 14px;&quot;&gt;…&lt;/div&gt;" style="text;html=1;align=left;verticalAlign=middle;whiteSpace=wrap;rounded=0;fontSize=16;" vertex="1" parent="ogGgAtrba4owZQfqpPe0-26">
          <mxGeometry x="19" y="31" width="140" height="70" as="geometry" />
        </mxCell>
        <mxCell id="ogGgAtrba4owZQfqpPe0-27" value="&lt;font style=&quot;font-size: 14px;&quot;&gt;Context&lt;/font&gt;&lt;div style=&quot;font-size: 14px;&quot;&gt;&lt;font style=&quot;font-size: 14px;&quot;&gt;Type&lt;/font&gt;&lt;/div&gt;&lt;div style=&quot;font-size: 14px;&quot;&gt;&lt;font style=&quot;font-size: 14px;&quot;&gt;ID&lt;/font&gt;&lt;/div&gt;&lt;div style=&quot;font-size: 14px;&quot;&gt;&lt;font style=&quot;font-size: 14px;&quot;&gt;Issuer&lt;/font&gt;&lt;/div&gt;&lt;div style=&quot;font-size: 14px;&quot;&gt;&lt;font style=&quot;font-size: 14px;&quot;&gt;Issue Date&lt;/font&gt;&lt;/div&gt;" style="text;html=1;align=left;verticalAlign=middle;whiteSpace=wrap;rounded=0;fontSize=16;" vertex="1" parent="1">
          <mxGeometry x="-477" y="-239.16000000000003" width="100" height="102" as="geometry" />
        </mxCell>
        <mxCell id="ogGgAtrba4owZQfqpPe0-28" value="&lt;font style=&quot;font-size: 14px;&quot;&gt;Context&lt;/font&gt;&lt;div style=&quot;font-size: 14px;&quot;&gt;&lt;font style=&quot;font-size: 14px;&quot;&gt;Type&lt;/font&gt;&lt;/div&gt;&lt;div style=&quot;font-size: 14px;&quot;&gt;&lt;font style=&quot;font-size: 14px;&quot;&gt;ID&lt;/font&gt;&lt;/div&gt;&lt;div style=&quot;font-size: 14px;&quot;&gt;&lt;font style=&quot;font-size: 14px;&quot;&gt;Issuer&lt;/font&gt;&lt;/div&gt;&lt;div style=&quot;font-size: 14px;&quot;&gt;&lt;font style=&quot;font-size: 14px;&quot;&gt;Issue Date&lt;/font&gt;&lt;/div&gt;" style="text;html=1;align=left;verticalAlign=middle;whiteSpace=wrap;rounded=0;fontSize=16;" vertex="1" parent="1">
          <mxGeometry x="-477" y="-560" width="100" height="102" as="geometry" />
        </mxCell>
        <mxCell id="ogGgAtrba4owZQfqpPe0-33" value="" style="group" vertex="1" connectable="0" parent="1">
          <mxGeometry x="-477" y="-107" width="190" height="27" as="geometry" />
        </mxCell>
        <mxCell id="ogGgAtrba4owZQfqpPe0-31" value="&lt;div style=&quot;font-size: 14px;&quot;&gt;&lt;font style=&quot;font-size: 14px;&quot;&gt;Credential Subject:&lt;/font&gt;&lt;/div&gt;&lt;div style=&quot;font-size: 14px;&quot;&gt;&lt;br&gt;&lt;/div&gt;" style="text;html=1;align=left;verticalAlign=middle;whiteSpace=wrap;rounded=0;fontSize=16;" vertex="1" parent="ogGgAtrba4owZQfqpPe0-33">
          <mxGeometry width="140" height="17.74193548387097" as="geometry" />
        </mxCell>
        <mxCell id="ogGgAtrba4owZQfqpPe0-32" value="&lt;div style=&quot;font-size: 14px;&quot;&gt;&lt;span style=&quot;background-color: initial;&quot;&gt;Degree&lt;/span&gt;&lt;/div&gt;" style="text;html=1;align=left;verticalAlign=middle;whiteSpace=wrap;rounded=0;fontSize=16;" vertex="1" parent="ogGgAtrba4owZQfqpPe0-33">
          <mxGeometry x="19" y="2.1612903225806406" width="171" height="24.838709677419363" as="geometry" />
        </mxCell>
        <mxCell id="ogGgAtrba4owZQfqpPe0-34" value="" style="group" vertex="1" connectable="0" parent="1">
          <mxGeometry x="-477" y="-45.5" width="190" height="27" as="geometry" />
        </mxCell>
        <mxCell id="ogGgAtrba4owZQfqpPe0-35" value="&lt;div style=&quot;font-size: 14px;&quot;&gt;&lt;font style=&quot;font-size: 14px;&quot;&gt;Proof:&lt;/font&gt;&lt;/div&gt;&lt;div style=&quot;font-size: 14px;&quot;&gt;&lt;br&gt;&lt;/div&gt;" style="text;html=1;align=left;verticalAlign=middle;whiteSpace=wrap;rounded=0;fontSize=16;" vertex="1" parent="ogGgAtrba4owZQfqpPe0-34">
          <mxGeometry width="140" height="17.74193548387097" as="geometry" />
        </mxCell>
        <mxCell id="ogGgAtrba4owZQfqpPe0-36" value="&lt;div style=&quot;font-size: 14px;&quot;&gt;&lt;span style=&quot;background-color: initial;&quot;&gt;Knowledge of Signature&lt;/span&gt;&lt;/div&gt;" style="text;html=1;align=left;verticalAlign=middle;whiteSpace=wrap;rounded=0;fontSize=16;" vertex="1" parent="ogGgAtrba4owZQfqpPe0-34">
          <mxGeometry x="19" y="2.1612903225806406" width="171" height="24.838709677419363" as="geometry" />
        </mxCell>
        <mxCell id="ogGgAtrba4owZQfqpPe0-37" value="" style="group" vertex="1" connectable="0" parent="1">
          <mxGeometry x="-477" y="-364" width="190" height="27" as="geometry" />
        </mxCell>
        <mxCell id="ogGgAtrba4owZQfqpPe0-38" value="&lt;div style=&quot;font-size: 14px;&quot;&gt;&lt;font style=&quot;font-size: 14px;&quot;&gt;Proof:&lt;/font&gt;&lt;/div&gt;&lt;div style=&quot;font-size: 14px;&quot;&gt;&lt;br&gt;&lt;/div&gt;" style="text;html=1;align=left;verticalAlign=middle;whiteSpace=wrap;rounded=0;fontSize=16;" vertex="1" parent="ogGgAtrba4owZQfqpPe0-37">
          <mxGeometry width="140" height="17.74193548387097" as="geometry" />
        </mxCell>
        <mxCell id="ogGgAtrba4owZQfqpPe0-39" value="&lt;div style=&quot;font-size: 14px;&quot;&gt;&lt;span style=&quot;background-color: initial;&quot;&gt;Knowledge of Signature&lt;/span&gt;&lt;/div&gt;" style="text;html=1;align=left;verticalAlign=middle;whiteSpace=wrap;rounded=0;fontSize=16;" vertex="1" parent="ogGgAtrba4owZQfqpPe0-37">
          <mxGeometry x="19" y="2.1612903225806406" width="171" height="24.838709677419363" as="geometry" />
        </mxCell>
        <mxCell id="ogGgAtrba4owZQfqpPe0-40" value="" style="group" vertex="1" connectable="0" parent="1">
          <mxGeometry x="-477" y="-430.08000000000004" width="190" height="27" as="geometry" />
        </mxCell>
        <mxCell id="ogGgAtrba4owZQfqpPe0-41" value="&lt;div style=&quot;font-size: 14px;&quot;&gt;&lt;font style=&quot;font-size: 14px;&quot;&gt;Credential Subject:&lt;/font&gt;&lt;/div&gt;&lt;div style=&quot;font-size: 14px;&quot;&gt;&lt;br&gt;&lt;/div&gt;" style="text;html=1;align=left;verticalAlign=middle;whiteSpace=wrap;rounded=0;fontSize=16;" vertex="1" parent="ogGgAtrba4owZQfqpPe0-40">
          <mxGeometry width="140" height="17.74193548387097" as="geometry" />
        </mxCell>
        <mxCell id="ogGgAtrba4owZQfqpPe0-42" value="&lt;div style=&quot;font-size: 14px;&quot;&gt;&lt;span style=&quot;background-color: initial;&quot;&gt;Age Over 18&lt;/span&gt;&lt;/div&gt;" style="text;html=1;align=left;verticalAlign=middle;whiteSpace=wrap;rounded=0;fontSize=16;" vertex="1" parent="ogGgAtrba4owZQfqpPe0-40">
          <mxGeometry x="19" y="2.1612903225806406" width="171" height="24.838709677419363" as="geometry" />
        </mxCell>
        <mxCell id="ogGgAtrba4owZQfqpPe0-43" value="" style="group" vertex="1" connectable="0" parent="1">
          <mxGeometry x="-520" y="64" width="190" height="27" as="geometry" />
        </mxCell>
        <mxCell id="ogGgAtrba4owZQfqpPe0-44" value="&lt;div style=&quot;font-size: 14px;&quot;&gt;&lt;font style=&quot;font-size: 14px;&quot;&gt;Proof:&lt;/font&gt;&lt;/div&gt;&lt;div style=&quot;font-size: 14px;&quot;&gt;&lt;br&gt;&lt;/div&gt;" style="text;html=1;align=left;verticalAlign=middle;whiteSpace=wrap;rounded=0;fontSize=16;" vertex="1" parent="ogGgAtrba4owZQfqpPe0-43">
          <mxGeometry width="140" height="17.74193548387097" as="geometry" />
        </mxCell>
        <mxCell id="ogGgAtrba4owZQfqpPe0-45" value="&lt;div style=&quot;font-size: 14px;&quot;&gt;&lt;span style=&quot;background-color: initial;&quot;&gt;Common Link Secret&lt;/span&gt;&lt;/div&gt;" style="text;html=1;align=left;verticalAlign=middle;whiteSpace=wrap;rounded=0;fontSize=16;" vertex="1" parent="ogGgAtrba4owZQfqpPe0-43">
          <mxGeometry x="19" y="2.1612903225806406" width="171" height="24.838709677419363" as="geometry" />
        </mxCell>
      </root>
    </mxGraphModel>
  </diagram>
</mxfile>
